<svg width="16" height="16" viewBox="0 0 16 16" fill="none" xmlns="http://www.w3.org/2000/svg">
<path d="M8.00017 1.33334C6.68162 1.33334 5.39269 1.72433 4.29636 2.45687C3.20004 3.18941 2.34555 4.23061 1.84097 5.44878C1.33638 6.66695 1.20436 8.0074 1.4616 9.3006C1.71883 10.5938 2.35377 11.7817 3.28612 12.714C4.21847 13.6464 5.40636 14.2813 6.69956 14.5386C7.99277 14.7958 9.33322 14.6638 10.5514 14.1592C11.7696 13.6546 12.8108 12.8001 13.5433 11.7038C14.2758 10.6075 14.6668 9.31854 14.6668 8C14.6668 7.12452 14.4944 6.25762 14.1594 5.44878C13.8243 4.63994 13.3333 3.90501 12.7142 3.28596C12.0952 2.6669 11.3602 2.17584 10.5514 1.84081C9.74255 1.50577 8.87565 1.33334 8.00017 1.33334ZM8.00017 13.3333C6.94533 13.3333 5.91419 13.0205 5.03712 12.4345C4.16006 11.8485 3.47648 11.0155 3.07281 10.041C2.66914 9.06644 2.56352 7.99409 2.76931 6.95952C2.9751 5.92496 3.48305 4.97465 4.22893 4.22877C4.97481 3.48289 5.92512 2.97494 6.95968 2.76915C7.99425 2.56336 9.06661 2.66898 10.0411 3.07265C11.0157 3.47631 11.8486 4.1599 12.4347 5.03696C13.0207 5.91402 13.3335 6.94517 13.3335 8C13.3335 9.41449 12.7716 10.771 11.7714 11.7712C10.7712 12.7714 9.41465 13.3333 8.00017 13.3333Z" fill="white"/>
<path d="M9.7998 5.59333L7.2798 8.92667L6.19313 7.52C6.0844 7.38032 5.92462 7.28955 5.74896 7.26767C5.5733 7.2458 5.39615 7.29459 5.25647 7.40333C5.11679 7.51207 5.02602 7.67184 5.00414 7.8475C4.98226 8.02316 5.03106 8.20032 5.1398 8.34L6.7598 10.4133C6.82258 10.4928 6.90264 10.5569 6.99389 10.6008C7.08515 10.6447 7.18521 10.6672 7.28647 10.6667C7.38828 10.6664 7.48868 10.6429 7.57998 10.5978C7.67127 10.5527 7.75103 10.4873 7.81313 10.4067L10.8598 6.40666C10.9677 6.26522 11.0149 6.08672 10.9911 5.91043C10.9674 5.73415 10.8746 5.57452 10.7331 5.46666C10.5917 5.35881 10.4132 5.31156 10.2369 5.33532C10.0606 5.35907 9.90099 5.45188 9.79313 5.59333H9.7998Z" fill="white"/>
</svg>
