<svg width="19" height="19" viewBox="0 0 19 19" fill="none" xmlns="http://www.w3.org/2000/svg">
<path d="M16.4727 3.53286C15.7285 2.81019 14.7329 2.40456 13.6956 2.40145H5.34057C4.82501 2.39412 4.31309 2.48908 3.83447 2.68084C3.35586 2.87258 2.92003 3.15733 2.55215 3.51858C2.18428 3.87984 1.89164 4.31045 1.69123 4.78551C1.49082 5.26056 1.38662 5.77063 1.38458 6.28622V12.7028C1.38618 13.2141 1.48909 13.72 1.68737 14.1912C1.88564 14.6624 2.1753 15.0897 2.5397 15.4483C3.27977 16.1781 4.27737 16.5874 5.31681 16.5876H13.6718C14.7112 16.5874 15.7088 16.1781 16.4489 15.4483C16.8154 15.0913 17.1066 14.6643 17.305 14.1927C17.5034 13.7212 17.6052 13.2145 17.6041 12.7028V6.28622C17.6076 5.77518 17.5092 5.26857 17.315 4.79587C17.1207 4.32318 16.8344 3.89384 16.4727 3.53286ZM9.2253 13.225C9.06785 13.225 8.91697 13.1625 8.80573 13.0513C8.69441 12.9399 8.6319 12.789 8.6319 12.6316C8.63206 12.3918 8.58459 12.1542 8.49218 11.9328C8.39985 11.7114 8.26447 11.5106 8.09389 11.3419C7.7386 11.0134 7.27241 10.8308 6.78842 10.8308C6.30443 10.8308 5.83823 11.0134 5.48293 11.3419C5.31199 11.5103 5.17633 11.7111 5.08395 11.9326C4.99156 12.154 4.94437 12.3917 4.94497 12.6316C4.94497 12.789 4.8824 12.9399 4.77112 13.0513C4.65984 13.1625 4.50895 13.225 4.35157 13.225C4.19419 13.225 4.0432 13.1625 3.93192 13.0513C3.82064 12.9399 3.75817 12.789 3.75817 12.6316C3.75754 12.2347 3.83546 11.8415 3.98755 11.4749C4.13964 11.1082 4.36289 10.7754 4.64431 10.4954C4.91565 10.2135 5.23773 9.98528 5.5937 9.82285C5.27343 9.62608 5.00917 9.35027 4.82626 9.02192C4.64337 8.6935 4.54803 8.32361 4.54937 7.94771C4.54937 7.3602 4.78274 6.7967 5.1982 6.38125C5.61366 5.96579 6.17711 5.73239 6.76466 5.73239C7.35221 5.73239 7.91563 5.96579 8.33109 6.38125C8.74655 6.7967 8.98003 7.3602 8.98003 7.94771C8.9847 8.32061 8.89419 8.68859 8.71696 9.0167C8.53973 9.34481 8.28172 9.62228 7.9673 9.82285C8.32919 9.97326 8.65936 10.1907 8.94047 10.4637C9.50301 11.0331 9.82099 11.7996 9.82661 12.6C9.83215 12.6814 9.8206 12.7633 9.79267 12.84C9.76474 12.9167 9.72107 12.9868 9.66442 13.0457C9.60777 13.1046 9.53949 13.1509 9.46385 13.1818C9.38821 13.2127 9.30695 13.2275 9.2253 13.225ZM14.3918 12.5287H11.5514C11.3941 12.5287 11.2431 12.4662 11.1318 12.355C11.0205 12.2437 10.958 12.0927 10.958 11.9353C10.958 11.778 11.0205 11.627 11.1318 11.5158C11.2431 11.4045 11.3941 11.3419 11.5514 11.3419H14.3918C14.5492 11.3419 14.7001 11.4045 14.8115 11.5158C14.9227 11.627 14.9852 11.778 14.9852 11.9353C14.9852 12.0927 14.9227 12.2437 14.8115 12.355C14.7001 12.4662 14.5492 12.5287 14.3918 12.5287ZM10.958 9.49055C10.958 9.33318 11.0205 9.1823 11.1318 9.07098C11.2431 8.95966 11.3941 8.89715 11.5514 8.89715H12.7698C12.9272 8.89715 13.0782 8.95966 13.1894 9.07098C13.3008 9.1823 13.3632 9.33318 13.3632 9.49055C13.3632 9.64792 13.3008 9.79888 13.1894 9.9102C13.0782 10.0214 12.9272 10.0839 12.7698 10.0839H11.5514C11.4733 10.0851 11.3956 10.0704 11.3231 10.041C11.2506 10.0116 11.1848 9.96788 11.1295 9.91257C11.0742 9.85719 11.0305 9.79136 11.001 9.71889C10.9716 9.64641 10.957 9.5688 10.958 9.49055ZM14.3918 7.64708H11.5514C11.3941 7.64708 11.2431 7.58457 11.1318 7.47329C11.0205 7.362 10.958 7.21106 10.958 7.05369C10.958 6.89631 11.0205 6.74537 11.1318 6.63409C11.2431 6.5228 11.3941 6.46029 11.5514 6.46029H14.3918C14.5492 6.46029 14.7001 6.5228 14.8115 6.63409C14.9227 6.74537 14.9852 6.89631 14.9852 7.05369C14.9852 7.21106 14.9227 7.362 14.8115 7.47329C14.7001 7.58457 14.5492 7.64708 14.3918 7.64708Z" fill="#F3F1F1"/>
<path d="M6.78845 9.00792C7.35651 9.00792 7.817 8.54745 7.817 7.97937C7.817 7.41133 7.35651 6.95083 6.78845 6.95083C6.2204 6.95083 5.75989 7.41133 5.75989 7.97937C5.75989 8.54745 6.2204 9.00792 6.78845 9.00792Z" fill="#F3F1F1"/>
</svg>
