<svg width="16" height="16" viewBox="0 0 16 16" fill="none" xmlns="http://www.w3.org/2000/svg">
<path d="M3.2002 7.6998H8C8.07956 7.6998 8.15663 7.73143 8.21289 7.78769C8.269 7.84385 8.30068 7.92023 8.30078 7.9996V12.8004C8.30068 12.8798 8.269 12.9561 8.21289 13.0123C8.15663 13.0686 8.07956 13.1002 8 13.1002H3.2002C3.12075 13.1001 3.04449 13.0685 2.98828 13.0123C2.93211 12.9561 2.90049 12.8798 2.90039 12.8004V7.9996C2.90049 7.92018 2.93211 7.84386 2.98828 7.78769C3.04449 7.73154 3.12075 7.69985 3.2002 7.6998ZM3.2002 2.89999H12.8008C12.8802 2.9001 12.9565 2.93172 13.0127 2.98788C13.0688 3.04409 13.1005 3.12035 13.1006 3.1998V4.80038C13.1005 4.87981 13.0689 4.95613 13.0127 5.0123C12.9565 5.06847 12.8802 5.10009 12.8008 5.10019H3.2002C3.12075 5.10014 3.04449 5.06845 2.98828 5.0123C2.93211 4.95613 2.90049 4.87981 2.90039 4.80038V3.1998C2.90044 3.1203 2.93207 3.0441 2.98828 2.98788C3.0445 2.93167 3.1207 2.90005 3.2002 2.89999Z" stroke="black"/>
<path d="M11.2002 7.69998H12.8008C12.8802 7.70008 12.9565 7.7317 13.0127 7.78787C13.0688 7.84408 13.1005 7.92034 13.1006 7.99979V12.7996C13.1006 12.8792 13.069 12.9562 13.0127 13.0125C12.9565 13.0686 12.8802 13.1003 12.8008 13.1004H11.2002C11.1208 13.1003 11.0445 13.0686 10.9883 13.0125C10.932 12.9562 10.9004 12.8792 10.9004 12.7996V7.99979L10.9062 7.94119C10.9178 7.88353 10.9461 7.83007 10.9883 7.78787C11.0445 7.73166 11.1207 7.70003 11.2002 7.69998Z" stroke="#7B61FF"/>
</svg>
