<svg width="286" height="147" viewBox="0 0 286 147" fill="none" xmlns="http://www.w3.org/2000/svg">
<g clip-path="url(#clip0_561_1122)">
<path d="M0 0H286V147H0V0Z" fill="#D8EACD"/>
<rect x="65.5" y="19.5" width="157" height="152" rx="7.5" fill="white"/>
<rect x="65.5" y="19.5" width="157" height="152" rx="7.5" stroke="black"/>
<rect x="77" y="38" width="50" height="5" fill="#D9D9D9"/>
<rect x="77" y="46" width="133" height="5" fill="#D9D9D9"/>
<rect opacity="0.23" x="77" y="62" width="133" height="67" fill="#D9D9D9"/>
<g opacity="0.3">
<path d="M132.74 104.58L133.449 99.7248C133.491 99.407 133.636 99.1117 133.862 98.8838L147.585 85.146C147.762 84.9664 147.983 84.8354 148.226 84.7657C148.469 84.6959 148.726 84.6897 148.972 84.7476C150.232 85.0964 151.374 85.7796 152.277 86.7249C153.219 87.6339 153.898 88.7813 154.24 90.045C154.298 90.2909 154.291 90.5477 154.222 90.7905C154.152 91.0334 154.021 91.2543 153.841 91.432L140.103 105.155C139.875 105.38 139.58 105.525 139.262 105.568L134.408 106.276C134.178 106.31 133.945 106.288 133.725 106.214C133.506 106.14 133.307 106.015 133.144 105.85C132.982 105.685 132.861 105.484 132.791 105.263C132.72 105.042 132.703 104.808 132.74 104.58Z" stroke="black" stroke-width="1.5" stroke-linecap="round" stroke-linejoin="round"/>
<path d="M144.988 87.7578L151.244 94.0144" stroke="black" stroke-width="1.5" stroke-linecap="round" stroke-linejoin="round"/>
<path d="M144.987 105.871L153.938 105.912" stroke="black" stroke-width="1.5" stroke-linecap="round" stroke-linejoin="round"/>
</g>
</g>
<defs>
<clipPath id="clip0_561_1122">
<rect width="286" height="147" fill="white"/>
</clipPath>
</defs>
</svg>
