<svg width="16" height="16" viewBox="0 0 16 16" fill="none" xmlns="http://www.w3.org/2000/svg">
<path d="M1.93233 8.48973C1.86695 8.3368 1.83301 8.16947 1.83301 8C1.83301 7.83053 1.86695 7.6632 1.93233 7.51027C2.47117 6.23001 3.33213 5.15326 4.40977 4.41187C5.48741 3.67049 6.73494 3.29667 7.99967 3.33617C9.26441 3.29667 10.5119 3.67049 11.5896 4.41187C12.6672 5.15326 13.5282 6.23001 14.067 7.51027C14.1324 7.6632 14.1663 7.83053 14.1663 8C14.1663 8.16947 14.1324 8.3368 14.067 8.48973C13.5282 9.77 12.6672 10.8467 11.5896 11.5881C10.5119 12.3295 9.26441 12.7033 7.99967 12.6638C6.73494 12.7033 5.48741 12.3295 4.40977 11.5881C3.33213 10.8467 2.47117 9.77 1.93233 8.48973Z" stroke="#7B61FF" stroke-width="1.5" stroke-linecap="round" stroke-linejoin="round"/>
<path d="M8.00033 10.3333C9.28899 10.3333 10.3337 9.28867 10.3337 8C10.3337 6.71133 9.28899 5.66667 8.00033 5.66667C6.71166 5.66667 5.66699 6.71133 5.66699 8C5.66699 9.28867 6.71166 10.3333 8.00033 10.3333Z" stroke="#7B61FF" stroke-width="1.5" stroke-linecap="round" stroke-linejoin="round"/>
</svg>
