<svg width="22" height="22" viewBox="0 0 22 22" fill="none" xmlns="http://www.w3.org/2000/svg">
<g clip-path="url(#clip0_30_39114)">
<mask id="mask0_30_39114" style="mask-type:luminance" maskUnits="userSpaceOnUse" x="1" y="2" width="19" height="18">
<path d="M19.9034 8.7161L8.35645 2.04943L1.95311 13.1403L13.5001 19.807L19.9034 8.7161Z" fill="white"/>
</mask>
<g mask="url(#mask0_30_39114)">
<path d="M17.1383 13.4395C16.9824 13.6027 16.7826 13.7174 16.5629 13.7693L13.5843 14.5284C13.5533 14.5375 13.5242 14.5519 13.4981 14.571C13.4771 14.5944 13.4613 14.6219 13.4515 14.6518L12.3818 17.5446C12.3074 17.7602 12.1715 17.9494 11.9907 18.0886C11.817 18.2289 11.6046 18.3131 11.3819 18.3298C11.1604 18.3547 10.9364 18.3186 10.7341 18.2252L10.659 18.1819C10.4896 18.0845 10.347 17.9467 10.244 17.7806L8.59022 15.1784C8.57383 15.15 8.55024 15.1265 8.52189 15.1101C8.49349 15.0937 8.46136 15.0851 8.42857 15.0851L5.34476 14.9597C5.11353 14.9502 4.88947 14.8768 4.69741 14.7476C4.51279 14.619 4.36733 14.4417 4.27714 14.2356C4.18411 14.0311 4.15212 13.8041 4.18496 13.5819C4.21767 13.3565 4.3132 13.1449 4.46055 12.9712L6.42756 10.6043C6.45112 10.5829 6.46746 10.5546 6.47422 10.5234C6.47995 10.4928 6.4798 10.4614 6.47381 10.4308L5.64855 7.46021C5.58741 7.24647 5.58755 7.01985 5.64899 6.80613C5.70156 6.58538 5.8174 6.38474 5.98231 6.22881C6.15281 6.08006 6.3617 5.98224 6.58513 5.94654C6.80856 5.91084 7.03753 5.93867 7.2459 6.02687L10.064 7.14583C10.0902 7.16012 10.1209 7.16406 10.1499 7.15693C10.1817 7.15278 10.212 7.14131 10.2386 7.12343L12.8443 5.41012C13.0271 5.28481 13.2415 5.21383 13.4629 5.20532C13.6312 5.19865 13.799 5.22764 13.9553 5.29045C14.1115 5.35326 14.2527 5.44842 14.3695 5.56967C14.4864 5.69096 14.5763 5.83561 14.6332 5.99408C14.6902 6.15257 14.7129 6.3213 14.7001 6.48922L14.5143 9.58432C14.5134 9.61935 14.5194 9.65422 14.532 9.68693C14.5427 9.71694 14.5633 9.74243 14.5904 9.75916L17.0089 11.6635C17.1839 11.8034 17.3165 11.9893 17.3918 12.2003C17.4646 12.4093 17.481 12.6338 17.4394 12.8513C17.3944 13.0711 17.2903 13.2744 17.1383 13.4395Z" fill="white"/>
</g>
</g>
<defs>
<clipPath id="clip0_30_39114">
<rect width="16" height="16" fill="white" transform="translate(8) rotate(30)"/>
</clipPath>
</defs>
</svg>
